# xmcd
#
# Track frame offsets:
#	150
#	13966
#	29029
#	42661
#	61274
#	76616
#	88804
#	103621
#	119762
#	135595
#	150068
#	160707
#	172939
#	187893
#	200522
#	215969
#	231671
#	242283
#	256024
#	273818
#	290789
#	304997
#
# Disc length: 4332 seconds
#
# Revision: 1
# Processed by: cddbd v1.5.1PL2 Copyright (c) Steve Scherf et al.
# Submitted via: audiograbber 1.83.01
#
DISCID=3410ea16
DTITLE=JOHN HAMMOND - So Many Roads-Hot Tracks (2 in 1)
DYEAR=1995
DGENRE=Blues
TTITLE0=Down in the bottom
TTITLE1=Long distance call
TTITLE2=Who do you love
TTITLE3=I want you to love me
TTITLE4=Judgement day
TTITLE5=So many roads, so many trains
TTITLE6=Rambling blues
TTITLE7=O yea i
TTITLE8=Jou can`t judge a book by the cover
TTITLE9=Gambling blues
TTITLE10=Baby, please don`t go
TTITLE11=Big boss man
TTITLE12=Mama keep you big mouth shut
TTITLE13=Who`s been talkin`
TTITLE14=Sugar mama
TTITLE15=Howlling for my darling
TTITLE16=You better watch yourself
TTITLE17=Pretty things
TTITLE18=Caress me baby
TTITLE19=Nadine
TTITLE20=Last night
TTITLE21=Sweet home Chicago
EXTD=
EXTT0=
EXTT1=
EXTT2=
EXTT3=
EXTT4=
EXTT5=
EXTT6=
EXTT7=
EXTT8=
EXTT9=
EXTT10=
EXTT11=
EXTT12=
EXTT13=
EXTT14=
EXTT15=
EXTT16=
EXTT17=
EXTT18=
EXTT19=
EXTT20=
EXTT21=
PLAYORDER=
